<svg xmlns="http://www.w3.org/2000/svg" width="1120" height="320" viewBox="0 0 1120 320" role="img" aria-label="RBWF Project Schedule Gantt Chart January to May 2026">
  <title>RABBIT WORKFLOW (RBWF) Project Schedule  JanMay 2026</title>
  <style>
    .title { font: 600 16px "Segoe UI", Helvetica, Arial, sans-serif; fill: #1f2937; }
    .sub { font: 12px "Segoe UI", Helvetica, Arial, sans-serif; fill: #4b5563; }
    .lbl { font: 12px "Segoe UI", Helvetica, Arial, sans-serif; fill: #111827; }
    .mth { font: 600 11px "Segoe UI", Helvetica, Arial, sans-serif; fill: #374151; }
    .axis { font: 10px "Segoe UI", Helvetica, Arial, sans-serif; fill: #6b7280; }
    .grid { stroke: #e5e7eb; stroke-width: 1; }
    .month-alt { fill: #f9fafb; }
    .bar-label { font: 10px "Segoe UI", Helvetica, Arial, sans-serif; fill: #111827; }
  </style>
  <rect width="1120" height="320" fill="#ffffff"/>
  <text x="16" y="28" class="title">2#2@'%2B#2# RABBIT WORKFLOW (RBWF)</text>
  <text x="16" y="48" class="sub">01 !#2! .(. 2569  31 $) 2! .(. 2569  |  '2!'I2-A@H213''12!44</text>

  <!-- timeline: x=300 to x=1080 ’ 780px for 151 days -->
  <!-- months: Jan 31, Feb 28, Mar 31, Apr 30, May 31 -->
  <!-- Jan: 031 ’ 0160.1 -->
  <!-- Feb: 3159 ’ 160.1304.8 -->
  <!-- Mar: 5990 ’ 304.8464.9 -->
  <!-- Apr: 90120 ’ 464.9619.9 -->
  <!-- May: 120151 ’ 619.9780 -->
  <g transform="translate(300,62)">
    <rect x="0" y="0" width="160.1" height="28" fill="#eef2ff"/>
    <rect x="160.1" y="0" width="144.6" height="28" fill="#f9fafb"/>
    <rect x="304.8" y="0" width="160.1" height="28" fill="#eef2ff"/>
    <rect x="464.9" y="0" width="155.0" height="28" fill="#f9fafb"/>
    <rect x="619.9" y="0" width="160.1" height="28" fill="#eef2ff"/>
    <text x="80" y="18" text-anchor="middle" class="mth">!.. 2569 (31)</text>
    <text x="232" y="18" text-anchor="middle" class="mth">.. 2569 (28)</text>
    <text x="385" y="18" text-anchor="middle" class="mth">!5.. 2569 (31)</text>
    <text x="542" y="18" text-anchor="middle" class="mth">@!.". 2569 (30)</text>
    <text x="700" y="18" text-anchor="middle" class="mth">.. 2569 (31)</text>
    <line x1="0" y1="28" x2="780" y2="28" stroke="#9ca3af"/>
    <line x1="160.1" y1="0" x2="160.1" y2="228" class="grid"/>
    <line x1="304.8" y1="0" x2="304.8" y2="228" class="grid"/>
    <line x1="464.9" y1="0" x2="464.9" y2="228" class="grid"/>
    <line x1="619.9" y1="0" x2="619.9" y2="228" class="grid"/>
    <rect x="0" y="28" width="780" height="200" fill="none" stroke="#d1d5db"/>
  </g>

  <!-- row labels -->
  <g transform="translate(16,100)">
    <text x="0" y="18" class="lbl">1. '4@#20+LA%0--A (31 '1)</text>
    <text x="0" y="58" class="lbl">2. 12#0+%1 (74 '1)</text>
    <text x="0" y="98" class="lbl">3. *-#0 (15 '1)</text>
    <text x="0" y="138" class="lbl">4. UAT (20 '1)</text>
    <text x="0" y="178" class="lbl">5. *H!-#0 (11 '1)</text>
  </g>

  <!-- bars: day * (780/151) -->
  <g transform="translate(300,100)">
    <!-- T1: day 0 width 31 -->
    <rect x="0" y="4" width="160.1" height="22" rx="3" fill="#4f46e5"/>
    <text x="80" y="19" text-anchor="middle" fill="#ffffff" class="bar-label">0131 !..</text>
    <!-- T2: day 31 width 74 ’ x=160.1 w=382.4 -->
    <rect x="160.1" y="44" width="382.4" height="22" rx="3" fill="#0d9488"/>
    <text x="351" y="59" text-anchor="middle" fill="#ffffff" class="bar-label">01 ..  15 @!.".</text>
    <!-- T3: day 105 width 15 ’ x=542.4 w=77.5 -->
    <rect x="542.4" y="84" width="77.5" height="22" rx="3" fill="#d97706"/>
    <text x="581" y="99" text-anchor="middle" fill="#ffffff" class="bar-label">1630 @!.".</text>
    <!-- T4: day 120 width 20 ’ x=619.9 w=103.3 -->
    <rect x="619.9" y="124" width="103.3" height="22" rx="3" fill="#db2777"/>
    <text x="671" y="139" text-anchor="middle" fill="#ffffff" class="bar-label">0120 ..</text>
    <!-- T5: day 140 width 11 ’ x=723.2 w=56.8 -->
    <rect x="723.2" y="164" width="56.8" height="22" rx="3" fill="#7c3aed"/>
    <text x="751" y="179" text-anchor="middle" fill="#ffffff" class="bar-label">2131</text>
  </g>
</svg>
